<?xml version="1.0" standalone="no"?>
<!DOCTYPE svg PUBLIC "-//W3C//DTD SVG 20010904//EN"
 "http://www.w3.org/TR/2001/REC-SVG-20010904/DTD/svg10.dtd">
<svg version="1.0" xmlns="http://www.w3.org/2000/svg"
 width="636.000000pt" height="748.000000pt" viewBox="0 0 636.000000 748.000000"
 preserveAspectRatio="xMidYMid meet">
<metadata>
Created by potrace 1.16, written by Peter Selinger 2001-2019
</metadata>
<g transform="translate(0.000000,748.000000) scale(0.100000,-0.100000)"
fill="#000000" stroke="none">
<path d="M6350 3745 l0 -3735 -3177 -3 -3178 -2 3183 -3 3182 -2 0 3740 c0
2057 -2 3740 -5 3740 -3 0 -5 -1681 -5 -3735z"/>
<path d="M3082 7358 c-5 -7 -22 -42 -37 -78 -29 -69 -58 -136 -81 -185 -8 -16
-120 -277 -250 -580 -130 -302 -244 -568 -254 -590 -10 -22 -66 -152 -125
-290 -58 -137 -113 -266 -122 -285 -9 -19 -24 -53 -34 -75 -9 -22 -36 -85 -59
-140 -23 -55 -48 -113 -56 -130 -7 -16 -35 -82 -62 -145 -44 -103 -244 -565
-293 -680 -11 -25 -25 -56 -31 -70 -6 -14 -14 -32 -18 -41 -4 -8 -23 -51 -41
-95 -141 -338 -349 -517 -630 -540 -44 -4 -79 -11 -80 -15 0 -12 0 -226 0
-239 1 -7 272 -9 807 -8 l806 3 0 125 0 125 -173 7 c-184 7 -253 19 -336 61
-104 53 -145 173 -112 329 10 46 345 859 376 913 11 20 24 20 647 23 415 2
643 -1 655 -8 11 -6 44 -69 81 -157 55 -133 138 -326 161 -378 9 -21 116 -272
164 -385 15 -36 31 -74 35 -85 4 -11 15 -37 24 -58 40 -94 0 -193 -94 -234
-19 -8 -83 -17 -142 -20 l-108 -6 0 -128 0 -129 850 0 850 0 0 129 0 129 -87
7 c-176 13 -286 83 -358 225 -12 25 -80 180 -150 345 -200 472 -293 691 -347
815 -27 63 -61 142 -75 175 -13 33 -33 78 -43 100 -9 22 -48 112 -85 200 -37
88 -75 178 -85 200 -9 22 -48 112 -85 200 -37 88 -94 221 -125 295 -32 74
-106 250 -166 390 -59 140 -178 419 -263 620 l-156 365 -141 3 c-105 2 -144
-1 -152 -10z m-16 -1366 c66 -155 123 -285 127 -288 4 -4 7 -13 7 -20 0 -7 15
-45 34 -86 88 -193 227 -531 224 -546 -3 -16 -41 -17 -528 -17 l-525 0 3 28
c2 16 25 79 51 140 27 62 86 200 131 307 125 298 311 733 322 753 5 10 15 17
21 14 7 -2 66 -130 133 -285z"/>
<path d="M2922 5628 c-7 -7 -12 -16 -12 -21 0 -5 -7 -23 -15 -40 -28 -62 -115
-271 -115 -279 0 -4 68 -8 151 -8 l151 0 -7 27 c-3 15 -16 48 -27 73 -12 25
-41 92 -65 149 -24 58 -45 106 -46 108 -2 1 -9 -3 -15 -9z"/>
<path d="M562 6418 c-5 -7 -15 -40 -21 -73 -11 -63 -20 -105 -46 -220 -8 -38
-26 -124 -40 -190 -14 -66 -32 -151 -40 -190 -9 -38 -20 -90 -25 -115 -5 -25
-18 -85 -29 -135 -11 -49 -26 -124 -35 -165 -8 -41 -27 -129 -41 -195 -15 -66
-33 -154 -42 -195 -8 -41 -19 -93 -24 -115 -5 -22 -16 -74 -24 -115 -8 -41
-19 -93 -24 -115 -5 -22 -14 -63 -19 -91 -6 -28 -12 -57 -14 -64 -4 -18 57
-26 250 -33 l143 -6 30 67 c128 280 331 646 473 852 112 162 319 383 446 476
132 97 314 180 455 208 64 12 187 23 283 26 6 0 12 4 12 9 0 5 16 44 35 85 19
42 35 79 35 82 0 3 12 31 26 62 56 123 65 150 48 156 -9 3 -417 6 -909 6 -702
0 -895 -3 -903 -12z"/>
<path d="M4073 6422 c-9 -6 9 -58 68 -197 44 -105 87 -196 94 -204 7 -8 37
-18 67 -22 110 -17 288 -89 408 -163 147 -92 281 -211 461 -411 148 -163 350
-486 533 -852 l86 -172 142 6 c188 7 243 15 241 33 -1 8 -6 35 -11 60 -31 144
-65 293 -77 345 -15 61 -101 448 -161 725 -19 85 -38 173 -43 195 -6 22 -17
69 -25 105 -8 36 -23 106 -34 155 -12 50 -35 153 -52 230 -17 77 -33 148 -36
158 -5 16 -53 17 -827 17 -452 0 -828 -4 -834 -8z"/>
<path d="M2482 4098 l3 -403 148 -3 147 -3 -2 -387 -3 -387 -148 -3 -147 -3 2
-292 3 -292 615 0 615 0 3 292 2 292 -137 3 -138 3 0 385 0 385 135 5 135 5 3
50 c2 45 -12 84 -147 400 l-149 350 -471 3 -471 2 2 -402z"/>
<path d="M607 2909 c-46 -54 -128 -212 -157 -304 -48 -151 -59 -238 -60 -450
0 -216 13 -306 63 -450 98 -284 302 -477 592 -563 210 -62 49 -56 1970 -62
1289 -4 1759 -9 1783 -17 104 -37 171 -148 181 -300 4 -54 11 -97 19 -105 19
-19 253 -18 276 1 15 12 16 85 14 900 l-3 886 -139 3 c-85 2 -143 -1 -151 -8
-7 -6 -14 -46 -17 -103 -4 -82 -9 -102 -38 -156 -45 -84 -86 -116 -173 -135
-62 -14 -258 -16 -1786 -16 -1479 0 -1728 2 -1801 15 -222 39 -368 176 -385
360 -14 154 33 296 132 397 47 48 55 60 49 82 l-6 26 -156 0 c-148 0 -155 1
-162 21 -8 20 -11 19 -45 -22z"/>
<path d="M2464 772 c-6 -4 -14 -19 -17 -33 -31 -128 -214 -219 -438 -219 l-79
0 2 -197 3 -198 1160 0 1160 0 3 196 2 197 -97 5 c-54 3 -122 10 -151 16 -115
22 -204 86 -253 183 l-29 58 -628 0 c-345 0 -632 -4 -638 -8z"/>
</g>
</svg>
